<?xml version="1.0" encoding="iso-8859-1"?>
<!-- Uploaded to: SVG Repo, www.svgrepo.com, Generator: SVG Repo Mixer Tools -->
<!DOCTYPE svg PUBLIC "-//W3C//DTD SVG 1.1//EN" "http://www.w3.org/Graphics/SVG/1.1/DTD/svg11.dtd">
<svg height="800px" width="800px" version="1.1" id="Capa_1" xmlns="http://www.w3.org/2000/svg" xmlns:xlink="http://www.w3.org/1999/xlink" 
	 viewBox="0 0 282.96 282.96" xml:space="preserve">
<path style="fill:#231F20;" d="M280.763,136.177l-82.071-82.071c-1.406-1.407-3.314-2.197-5.303-2.197
	c-1.989,0-3.897,0.79-5.303,2.197l-14.143,14.143c-1.407,1.406-2.197,3.314-2.197,5.303c0,1.989,0.79,3.897,2.197,5.303
	l45.126,45.125H7.5c-4.142,0-7.5,3.358-7.5,7.5v20c0,4.142,3.358,7.5,7.5,7.5h211.569l-45.126,45.125
	c-1.407,1.406-2.197,3.314-2.197,5.303c0,1.989,0.79,3.897,2.197,5.303l14.143,14.143c1.406,1.407,3.314,2.197,5.303,2.197
	c1.989,0,3.897-0.79,5.303-2.197l82.071-82.071C283.692,143.855,283.692,139.106,280.763,136.177z"/>
</svg>