<?xml version="1.0" encoding="utf-8"?>
<!-- Generator: Adobe Illustrator 23.0.2, SVG Export Plug-In . SVG Version: 6.00 Build 0)  -->
<svg version="1.1" id="Layer_1" xmlns="http://www.w3.org/2000/svg" xmlns:xlink="http://www.w3.org/1999/xlink" x="0px" y="0px"
	 viewBox="0 0 2578.04 1568.88" style="enable-background:new 0 0 2578.04 1568.88;" xml:space="preserve">
<style type="text/css">
	.st0{fill:#EBF2F9;}
	.st1{fill:#DCEAF9;}
	.st2{fill:#D5E7F7;}
	.st3{fill:#C4D9ED;}
	.st4{fill:#ADC9E0;}
	.st5{fill:#1C2948;}
	.st6{fill:#E37970;}
	.st7{fill:#233862;}
	.st8{fill:#2B478B;}
	.st9{fill:#AB7041;}
	.st10{fill:#9C5F33;}
	.st11{fill:#74ACBE;}
	.st12{fill:#9ED9F0;}
	.st13{fill:#D86713;}
	.st14{fill:#F1A34F;}
	.st15{fill:#163560;}
	.st16{fill:#F8C800;}
	.st17{fill:#DDB40A;}
	.st18{fill:#B64C41;}
	.st19{fill:#466AA5;}
	.st20{fill:#283250;}
	.st21{fill:#66A357;}
	.st22{fill:#A8D29F;}
	.st23{fill:#82B378;}
	.st24{fill:#2D3A62;}
	.st25{fill:#98BDF4;}
</style>
<g>
	<g>
		<path class="st0" d="M2194.71,539.61c-395.96,82.63-163.8-831.1-703.21-443.25c-214.51,154.24-523.39-32.41-819.19,69.61
			c-271.66,93.69-204.74,401.12-178.45,501.7c53.1,203.18-211.34,122.15-364.62,209.44c-240.43,136.93-29.52,689,197.61,691.3
			c227.14,2.3,1895.86-4.58,1895.86-4.58s99.13-77.55,151.76-237.38C2482.37,998.8,2543.37,466.85,2194.71,539.61z"/>
		<g>
			<g>
				<rect x="2093.24" y="1353.13" class="st1" width="102.59" height="211.4"/>
				<polygon class="st2" points="684.4,760.33 684.4,667.94 712.45,667.94 712.45,509.08 862.83,509.08 862.83,667.94 
					1003.42,667.94 1003.42,450.19 1158.56,391.46 1158.56,577.12 1193.94,577.12 1193.94,329.88 1349.09,381.3 1349.09,752.65 
					1545.3,752.65 1545.3,972 1618.61,972 1618.61,1027.26 1787,1027.26 1787,932.1 1883.69,932.1 1883.69,673.54 2003.12,673.54 
					2003.12,1150.84 2122.55,1150.84 2122.55,1566.17 2003.12,1566.17 1900.75,1566.17 1883.69,1566.17 1787,1566.17 
					1732.35,1566.17 1644.82,1566.17 1618.61,1566.17 1545.3,1566.17 1476.43,1566.17 1349.09,1566.17 1310.09,1566.17 
					1232.5,1566.17 1193.94,1566.17 1158.56,1566.17 1077.35,1566.17 1022.07,1566.17 1003.42,1566.17 862.83,1566.17 
					714.96,1566.17 712.45,1566.17 684.4,1566.17 564.58,1566.17 564.58,760.33 				"/>
				
					<rect x="1221.24" y="400.1" transform="matrix(-1 -1.224647e-16 1.224647e-16 -1 2547.1428 838.5202)" class="st3" width="104.66" height="38.33"/>
				
					<rect x="1221.24" y="472.1" transform="matrix(-1 -1.224647e-16 1.224647e-16 -1 2547.1428 982.5213)" class="st3" width="104.66" height="38.33"/>
				
					<rect x="1221.24" y="536.87" transform="matrix(-1 -1.224647e-16 1.224647e-16 -1 2547.1428 1112.0743)" class="st3" width="104.66" height="38.33"/>
				<g>
					<rect x="1881.47" y="847.74" class="st3" width="121.64" height="59.16"/>
					<rect x="1882.64" y="1029.33" class="st3" width="120.48" height="59.16"/>
					<rect x="1882.64" y="1118.7" class="st3" width="120.48" height="59.16"/>
				</g>
				
					<rect x="1884.6" y="1212.19" transform="matrix(-1 -1.224647e-16 1.224647e-16 -1 3889.6814 2483.5442)" class="st3" width="120.48" height="59.16"/>
				<rect x="1884.6" y="1303.76" class="st3" width="120.48" height="59.16"/>
				
					<rect x="1884.6" y="1397.25" transform="matrix(-1 -1.224647e-16 1.224647e-16 -1 3889.6814 2853.6665)" class="st3" width="120.48" height="59.16"/>
				<g>
					<rect x="1028.06" y="536.87" class="st3" width="110.08" height="38.33"/>
					<rect x="1028.06" y="472.68" class="st3" width="110.08" height="38.33"/>
					<rect x="1028.06" y="599.68" class="st3" width="300.51" height="38.33"/>
					<rect x="1028.06" y="657.31" class="st3" width="300.51" height="38.33"/>
					<rect x="1028.06" y="714.55" class="st3" width="300.51" height="36.86"/>
				</g>
				<rect x="1882.64" y="939.96" class="st3" width="120.48" height="59.16"/>
				<g>
					<rect x="1488.95" y="788.6" class="st3" width="26.3" height="37.07"/>
					<rect x="1439.77" y="788.6" class="st3" width="26.3" height="37.07"/>
					<rect x="1391.69" y="788.6" class="st3" width="26.3" height="37.07"/>
					<rect x="1346.1" y="788.6" class="st3" width="26.3" height="37.07"/>
					<rect x="1299.63" y="788.6" class="st3" width="26.3" height="37.07"/>
					<rect x="1252.64" y="788.6" class="st3" width="26.3" height="37.07"/>
					<rect x="1203.46" y="788.6" class="st3" width="26.3" height="37.07"/>
					<rect x="1155.38" y="788.6" class="st3" width="26.3" height="37.07"/>
					<rect x="1109.79" y="788.6" class="st3" width="26.3" height="37.07"/>
					<rect x="1063.32" y="788.6" class="st3" width="26.3" height="37.07"/>
					<rect x="1014.9" y="788.6" class="st3" width="26.3" height="37.07"/>
					<rect x="965.72" y="788.6" class="st3" width="26.3" height="37.07"/>
					<rect x="917.64" y="788.6" class="st3" width="26.3" height="37.07"/>
					<rect x="872.05" y="788.6" class="st3" width="26.3" height="37.07"/>
					<rect x="825.59" y="788.6" class="st3" width="26.3" height="37.07"/>
					<rect x="778.59" y="788.6" class="st3" width="26.3" height="37.07"/>
					<rect x="729.41" y="788.6" class="st3" width="26.3" height="37.07"/>
					<rect x="681.33" y="788.6" class="st3" width="26.3" height="37.07"/>
					<rect x="635.74" y="788.6" class="st3" width="26.3" height="37.07"/>
					<rect x="589.28" y="788.6" class="st3" width="26.3" height="37.07"/>
					<rect x="1488.95" y="854.02" class="st3" width="26.3" height="37.07"/>
					<rect x="1439.77" y="854.02" class="st3" width="26.3" height="37.07"/>
					<rect x="1391.69" y="854.02" class="st3" width="26.3" height="37.07"/>
					<rect x="1346.1" y="854.02" class="st3" width="26.3" height="37.07"/>
					<rect x="1299.63" y="854.02" class="st3" width="26.3" height="37.07"/>
					<rect x="1252.64" y="854.02" class="st3" width="26.3" height="37.07"/>
					<rect x="1203.46" y="854.02" class="st3" width="26.3" height="37.07"/>
					<rect x="1155.38" y="854.02" class="st3" width="26.3" height="37.07"/>
					<rect x="1109.79" y="854.02" class="st3" width="26.3" height="37.07"/>
					<rect x="1063.32" y="854.02" class="st3" width="26.3" height="37.07"/>
					<rect x="1014.9" y="854.02" class="st3" width="26.3" height="37.07"/>
					<rect x="965.72" y="854.02" class="st3" width="26.3" height="37.07"/>
					<rect x="917.64" y="854.02" class="st3" width="26.3" height="37.07"/>
					<rect x="872.05" y="854.02" class="st3" width="26.3" height="37.07"/>
					<rect x="825.59" y="854.02" class="st3" width="26.3" height="37.07"/>
					<rect x="778.59" y="854.02" class="st3" width="26.3" height="37.07"/>
					<rect x="729.41" y="854.02" class="st3" width="26.3" height="37.07"/>
					<rect x="681.33" y="854.02" class="st3" width="26.3" height="37.07"/>
					<rect x="635.74" y="854.02" class="st3" width="26.3" height="37.07"/>
					<rect x="589.28" y="854.02" class="st3" width="26.3" height="37.07"/>
					<rect x="1488.95" y="918.43" class="st3" width="26.3" height="37.07"/>
					<rect x="1439.77" y="918.43" class="st3" width="26.3" height="37.07"/>
					<rect x="1391.69" y="918.43" class="st3" width="26.3" height="37.07"/>
					<rect x="1346.1" y="918.43" class="st3" width="26.3" height="37.07"/>
					<rect x="1299.63" y="918.43" class="st3" width="26.3" height="37.07"/>
					<rect x="1252.64" y="918.43" class="st3" width="26.3" height="37.07"/>
					<rect x="1203.46" y="918.43" class="st3" width="26.3" height="37.07"/>
					<rect x="1155.38" y="918.43" class="st3" width="26.3" height="37.07"/>
					<rect x="1109.79" y="918.43" class="st3" width="26.3" height="37.07"/>
					<rect x="1063.32" y="918.43" class="st3" width="26.3" height="37.07"/>
					<rect x="1014.9" y="918.43" class="st3" width="26.3" height="37.07"/>
					<rect x="965.72" y="918.43" class="st3" width="26.3" height="37.07"/>
					<rect x="917.64" y="918.43" class="st3" width="26.3" height="37.07"/>
					<rect x="872.05" y="918.43" class="st3" width="26.3" height="37.07"/>
					<rect x="825.59" y="918.43" class="st3" width="26.3" height="37.07"/>
					<rect x="778.59" y="918.43" class="st3" width="26.3" height="37.07"/>
					<rect x="729.41" y="918.43" class="st3" width="26.3" height="37.07"/>
					<rect x="681.33" y="918.43" class="st3" width="26.3" height="37.07"/>
					<rect x="635.74" y="918.43" class="st3" width="26.3" height="37.07"/>
					<rect x="589.28" y="918.43" class="st3" width="26.3" height="37.07"/>
					<rect x="1488.95" y="986.87" class="st3" width="26.3" height="37.07"/>
					<rect x="1439.77" y="986.87" class="st3" width="26.3" height="37.07"/>
					<rect x="1391.69" y="986.87" class="st3" width="26.3" height="37.07"/>
					<rect x="1346.1" y="986.87" class="st3" width="26.3" height="37.07"/>
					<rect x="1299.63" y="986.87" class="st3" width="26.3" height="37.07"/>
					<rect x="1252.64" y="986.87" class="st3" width="26.3" height="37.07"/>
					<rect x="1203.46" y="986.87" class="st3" width="26.3" height="37.07"/>
					<rect x="1155.38" y="986.87" class="st3" width="26.3" height="37.07"/>
					<rect x="1109.79" y="986.87" class="st3" width="26.3" height="37.07"/>
					<rect x="1063.32" y="986.87" class="st3" width="26.3" height="37.07"/>
					<rect x="1014.9" y="986.87" class="st3" width="26.3" height="37.07"/>
					<rect x="965.72" y="986.87" class="st3" width="26.3" height="37.07"/>
					<rect x="917.64" y="986.87" class="st3" width="26.3" height="37.07"/>
					<rect x="872.05" y="986.87" class="st3" width="26.3" height="37.07"/>
					<rect x="825.59" y="986.87" class="st3" width="26.3" height="37.07"/>
					<rect x="778.59" y="986.87" class="st3" width="26.3" height="37.07"/>
					<rect x="729.41" y="986.87" class="st3" width="26.3" height="37.07"/>
					<rect x="681.33" y="986.87" class="st3" width="26.3" height="37.07"/>
					<rect x="635.74" y="986.87" class="st3" width="26.3" height="37.07"/>
					<rect x="589.28" y="986.87" class="st3" width="26.3" height="37.07"/>
					<rect x="1488.95" y="1052.29" class="st3" width="26.3" height="37.07"/>
					<rect x="1439.77" y="1052.29" class="st3" width="26.3" height="37.07"/>
					<rect x="1391.69" y="1052.29" class="st3" width="26.3" height="37.07"/>
					<rect x="1346.1" y="1052.29" class="st3" width="26.3" height="37.07"/>
					<rect x="1299.63" y="1052.29" class="st3" width="26.3" height="37.07"/>
					<rect x="1252.64" y="1052.29" class="st3" width="26.3" height="37.07"/>
					<rect x="1203.46" y="1052.29" class="st3" width="26.3" height="37.07"/>
					<rect x="1155.38" y="1052.29" class="st3" width="26.3" height="37.07"/>
					<rect x="1109.79" y="1052.29" class="st3" width="26.3" height="37.07"/>
					<rect x="1063.32" y="1052.29" class="st3" width="26.3" height="37.07"/>
					<rect x="1014.9" y="1052.29" class="st3" width="26.3" height="37.07"/>
					<rect x="965.72" y="1052.29" class="st3" width="26.3" height="37.07"/>
					<rect x="917.64" y="1052.29" class="st3" width="26.3" height="37.07"/>
					<rect x="872.05" y="1052.29" class="st3" width="26.3" height="37.07"/>
					<rect x="825.59" y="1052.29" class="st3" width="26.3" height="37.07"/>
					<rect x="778.59" y="1052.29" class="st3" width="26.3" height="37.07"/>
					<rect x="729.41" y="1052.29" class="st3" width="26.3" height="37.07"/>
					<rect x="635.74" y="1052.29" class="st3" width="26.3" height="37.07"/>
					<rect x="681.33" y="1052.29" class="st3" width="26.3" height="37.07"/>
					<rect x="589.28" y="1052.29" class="st3" width="26.3" height="37.07"/>
					<rect x="1488.95" y="1116.7" class="st3" width="26.3" height="37.07"/>
					<rect x="1439.77" y="1116.7" class="st3" width="26.3" height="37.07"/>
					<rect x="1391.69" y="1116.7" class="st3" width="26.3" height="37.07"/>
					<rect x="1346.1" y="1116.7" class="st3" width="26.3" height="37.07"/>
					<rect x="1299.63" y="1116.7" class="st3" width="26.3" height="37.07"/>
					<rect x="1252.64" y="1116.7" class="st3" width="26.3" height="37.07"/>
					<rect x="1203.46" y="1116.7" class="st3" width="26.3" height="37.07"/>
					<rect x="1155.38" y="1116.7" class="st3" width="26.3" height="37.07"/>
					<rect x="1109.79" y="1116.7" class="st3" width="26.3" height="37.07"/>
					<rect x="1063.32" y="1116.7" class="st3" width="26.3" height="37.07"/>
					<rect x="1014.9" y="1116.7" class="st3" width="26.3" height="37.07"/>
					<rect x="965.72" y="1116.7" class="st3" width="26.3" height="37.07"/>
					<rect x="917.64" y="1116.7" class="st3" width="26.3" height="37.07"/>
					<rect x="872.05" y="1116.7" class="st3" width="26.3" height="37.07"/>
					<rect x="825.59" y="1116.7" class="st3" width="26.3" height="37.07"/>
					<rect x="778.59" y="1116.7" class="st3" width="26.3" height="37.07"/>
					<rect x="729.41" y="1116.7" class="st3" width="26.3" height="37.07"/>
					<rect x="635.74" y="1116.7" class="st3" width="26.3" height="37.07"/>
					<rect x="589.28" y="1116.7" class="st3" width="26.3" height="37.07"/>
				</g>
				<rect x="310.3" y="1043.42" class="st3" width="58.51" height="395.84"/>
				
					<rect x="368.81" y="1284.08" transform="matrix(-1 -1.224647e-16 1.224647e-16 -1 800.4233 2843.116)" class="st4" width="62.81" height="274.95"/>
				<polygon class="st3" points="1744.22,931.93 1744.22,854.83 1741.05,854.83 1741.05,931.93 1697.66,931.93 1697.66,1027.09 
					1787.02,1027.09 1787.02,931.93 				"/>
				<polygon class="st3" points="2003.12,732.81 2003.12,673.65 1977.98,673.65 1977.98,647.9 1974.81,647.9 1974.81,673.65 
					1883.15,673.65 1881.47,673.65 1864.14,673.65 1864.14,647.9 1860.97,647.9 1860.97,673.65 1838.72,673.65 1838.72,932.18 
					1883.15,932.18 1883.15,820.79 2003.12,820.79 2003.12,761.63 1883.15,761.63 1883.15,732.81 				"/>
				<polygon class="st2" points="704.31,1101.03 704.31,1434.72 368.81,1434.72 368.81,1043.42 				"/>
				
					<rect x="285.76" y="1283.05" transform="matrix(-1 -1.224647e-16 1.224647e-16 -1 990.0697 2847.5835)" class="st2" width="418.55" height="281.48"/>
				
					<rect x="285.76" y="1116.46" transform="matrix(-1 -1.224647e-16 1.224647e-16 -1 990.0697 2324.407)" class="st3" width="418.55" height="91.49"/>
				<g>
					<rect x="654.32" y="1359.37" class="st3" width="21.5" height="30.3"/>
					<rect x="614.12" y="1359.37" class="st3" width="21.5" height="30.3"/>
					<rect x="574.82" y="1359.37" class="st3" width="21.5" height="30.3"/>
					<rect x="537.56" y="1359.37" class="st3" width="21.5" height="30.3"/>
					<rect x="499.58" y="1359.37" class="st3" width="21.5" height="30.3"/>
					<rect x="461.17" y="1359.37" class="st3" width="21.5" height="30.3"/>
					<rect x="420.98" y="1359.37" class="st3" width="21.5" height="30.3"/>
					<rect x="381.68" y="1359.37" class="st3" width="21.5" height="30.3"/>
					<rect x="344.42" y="1359.37" class="st3" width="21.5" height="30.3"/>
					<rect x="306.44" y="1359.37" class="st3" width="21.5" height="30.3"/>
					<rect x="654.32" y="1412.84" class="st3" width="21.5" height="30.3"/>
					<rect x="614.12" y="1412.84" class="st3" width="21.5" height="30.3"/>
					<rect x="574.82" y="1412.84" class="st3" width="21.5" height="30.3"/>
					<rect x="537.56" y="1412.84" class="st3" width="21.5" height="30.3"/>
					<rect x="499.58" y="1412.84" class="st3" width="21.5" height="30.3"/>
					<rect x="461.17" y="1412.84" class="st3" width="21.5" height="30.3"/>
					<rect x="420.98" y="1412.84" class="st3" width="21.5" height="30.3"/>
					<rect x="381.68" y="1412.84" class="st3" width="21.5" height="30.3"/>
					<rect x="344.42" y="1412.84" class="st3" width="21.5" height="30.3"/>
					<rect x="306.44" y="1412.84" class="st3" width="21.5" height="30.3"/>
					<rect x="654.32" y="1251.64" class="st3" width="21.5" height="30.3"/>
					<rect x="614.12" y="1251.64" class="st3" width="21.5" height="30.3"/>
					<rect x="574.82" y="1251.64" class="st3" width="21.5" height="30.3"/>
					<rect x="537.56" y="1251.64" class="st3" width="21.5" height="30.3"/>
					<rect x="499.58" y="1251.64" class="st3" width="21.5" height="30.3"/>
					<rect x="461.17" y="1251.64" class="st3" width="21.5" height="30.3"/>
					<rect x="420.98" y="1251.64" class="st3" width="21.5" height="30.3"/>
					<rect x="381.68" y="1251.64" class="st3" width="21.5" height="30.3"/>
					<rect x="654.32" y="1305.1" class="st3" width="21.5" height="30.3"/>
					<rect x="614.12" y="1305.1" class="st3" width="21.5" height="30.3"/>
					<rect x="574.82" y="1305.1" class="st3" width="21.5" height="30.3"/>
					<rect x="537.56" y="1305.1" class="st3" width="21.5" height="30.3"/>
					<rect x="499.58" y="1305.1" class="st3" width="21.5" height="30.3"/>
					<rect x="461.17" y="1305.1" class="st3" width="21.5" height="30.3"/>
					<rect x="420.98" y="1305.1" class="st3" width="21.5" height="30.3"/>
					<rect x="381.68" y="1305.1" class="st3" width="21.5" height="30.3"/>
					<rect x="344.42" y="1305.1" class="st3" width="21.5" height="30.3"/>
					<rect x="306.44" y="1305.1" class="st3" width="21.5" height="30.3"/>
					<rect x="654.32" y="1465.49" class="st3" width="21.5" height="30.3"/>
					<rect x="614.12" y="1465.49" class="st3" width="21.5" height="30.3"/>
					<rect x="574.82" y="1465.49" class="st3" width="21.5" height="30.3"/>
					<rect x="537.56" y="1465.49" class="st3" width="21.5" height="30.3"/>
					<rect x="499.58" y="1465.49" class="st3" width="21.5" height="30.3"/>
					<rect x="461.17" y="1465.49" class="st3" width="21.5" height="30.3"/>
					<rect x="420.98" y="1465.49" class="st3" width="21.5" height="30.3"/>
					<rect x="381.68" y="1465.49" class="st3" width="21.5" height="30.3"/>
					<rect x="344.42" y="1465.49" class="st3" width="21.5" height="30.3"/>
					<rect x="306.44" y="1465.49" class="st3" width="21.5" height="30.3"/>
				</g>
				<rect x="391.31" y="980.58" class="st2" width="6.2" height="79.34"/>
				<g>
					<rect x="654.32" y="1142.16" class="st2" width="18.06" height="31.25"/>
					<rect x="474.98" y="1142.16" class="st2" width="18.06" height="31.25"/>
					<rect x="332.33" y="1142.16" class="st2" width="18.06" height="31.25"/>
				</g>
			</g>
			<rect x="1216.61" y="1212.19" class="st3" width="602.34" height="352.34"/>
			<rect x="1240.23" y="1248.31" class="st2" width="32.12" height="49.03"/>
			<rect x="1296.87" y="1248.31" class="st2" width="32.12" height="49.03"/>
			<rect x="1353.87" y="1248.31" class="st2" width="32.12" height="49.03"/>
			<rect x="1410.51" y="1248.31" class="st2" width="32.12" height="49.03"/>
			<rect x="1468.83" y="1248.31" class="st2" width="32.12" height="49.03"/>
			<rect x="1525.46" y="1248.31" class="st2" width="32.12" height="49.03"/>
			<rect x="1582.47" y="1248.31" class="st2" width="32.12" height="49.03"/>
			<rect x="1639.1" y="1248.31" class="st2" width="32.12" height="49.03"/>
			<rect x="1698.5" y="1248.31" class="st2" width="32.12" height="49.03"/>
			<rect x="1755.13" y="1248.31" class="st2" width="32.12" height="49.03"/>
			<rect x="1240.23" y="1320.83" class="st2" width="32.12" height="49.03"/>
			<rect x="1296.87" y="1320.83" class="st2" width="32.12" height="49.03"/>
			<rect x="1353.87" y="1320.83" class="st2" width="32.12" height="49.03"/>
			<rect x="1410.51" y="1320.83" class="st2" width="32.12" height="49.03"/>
			<rect x="1468.83" y="1320.83" class="st2" width="32.12" height="49.03"/>
			<rect x="1525.46" y="1320.83" class="st2" width="32.12" height="49.03"/>
			<rect x="1582.47" y="1320.83" class="st2" width="32.12" height="49.03"/>
			<rect x="1639.1" y="1320.83" class="st2" width="32.12" height="49.03"/>
			<rect x="1698.5" y="1320.83" class="st2" width="32.12" height="49.03"/>
			<rect x="1755.13" y="1320.83" class="st2" width="32.12" height="49.03"/>
			<rect x="1240.23" y="1398.72" class="st2" width="32.12" height="49.03"/>
			<rect x="1296.87" y="1398.72" class="st2" width="32.12" height="49.03"/>
			<rect x="1353.87" y="1398.72" class="st2" width="32.12" height="49.03"/>
			<rect x="1410.51" y="1398.72" class="st2" width="32.12" height="49.03"/>
			<rect x="1468.83" y="1398.72" class="st2" width="32.12" height="49.03"/>
			<rect x="1525.46" y="1398.72" class="st2" width="32.12" height="49.03"/>
			<rect x="1582.47" y="1398.72" class="st2" width="32.12" height="49.03"/>
			<rect x="1639.1" y="1398.72" class="st2" width="32.12" height="49.03"/>
			<rect x="1698.5" y="1398.72" class="st2" width="32.12" height="49.03"/>
			<rect x="1755.13" y="1398.72" class="st2" width="32.12" height="49.03"/>
			<rect x="1240.23" y="1471.24" class="st2" width="32.12" height="49.03"/>
			<rect x="1296.87" y="1471.24" class="st2" width="32.12" height="49.03"/>
			<rect x="1353.87" y="1471.24" class="st2" width="32.12" height="49.03"/>
			<rect x="1410.51" y="1471.24" class="st2" width="32.12" height="49.03"/>
			<rect x="1468.83" y="1471.24" class="st2" width="32.12" height="49.03"/>
			<rect x="1525.46" y="1471.24" class="st2" width="32.12" height="49.03"/>
			<rect x="1582.47" y="1471.24" class="st2" width="32.12" height="49.03"/>
			<rect x="1639.1" y="1471.24" class="st2" width="32.12" height="49.03"/>
			<rect x="1698.5" y="1471.24" class="st2" width="32.12" height="49.03"/>
			<rect x="1755.13" y="1471.24" class="st2" width="32.12" height="49.03"/>
			<polygon class="st3" points="1611.44,1228.28 1737.14,1228.28 1737.14,1118.7 1611.44,1166.82 			"/>
			<polygon class="st3" points="991.96,1564.53 704.31,1564.53 704.31,1251.64 991.96,1351.21 			"/>
			<rect x="711.91" y="1361.57" class="st2" width="272.45" height="9.67"/>
			<rect x="711.91" y="1392.65" class="st2" width="272.45" height="9.67"/>
			<rect x="711.91" y="1423.73" class="st2" width="272.45" height="9.67"/>
			<rect x="711.91" y="1454.81" class="st2" width="272.45" height="9.67"/>
			<rect x="711.91" y="1485.89" class="st2" width="272.45" height="9.67"/>
			<rect x="711.91" y="1516.96" class="st2" width="272.45" height="9.67"/>
			<rect x="1737.14" y="1118.7" class="st3" width="24.17" height="93.5"/>
			
				<rect x="1670.01" y="1157.15" transform="matrix(-1.836970e-16 1 -1 -1.836970e-16 2867.7305 -504.3989)" class="st2" width="32.12" height="49.03"/>
			<g>
				<rect x="730.04" y="522.12" class="st3" width="16.67" height="141.4"/>
				<rect x="763.19" y="522.12" class="st3" width="16.67" height="141.4"/>
				<rect x="795.89" y="522.12" class="st3" width="16.67" height="141.4"/>
				<rect x="829.73" y="522.12" class="st3" width="16.67" height="141.4"/>
			</g>
		</g>
	</g>
	<polygon class="st5" points="1779.29,1480.64 252.29,1480.64 314.29,1251.64 1779.29,1251.64 	"/>
	<path class="st6" d="M624.87,331.49c-171.11,0-309.82,138.71-309.82,309.82s309.82,478.61,309.82,478.61
		s309.82-307.5,309.82-478.61S795.98,331.49,624.87,331.49z M624.87,824.72c-116.1,0-210.21-94.12-210.21-210.21
		s94.12-210.21,210.21-210.21s210.21,94.12,210.21,210.21S740.96,824.72,624.87,824.72z"/>
	<g>
		<g id="man_3_">
			<g>
				<path class="st7" d="M2291.68,1527.04c-2.38,8.02-13.38,13.38-14.86,23.19c-1.16,7.61-4.99,12.53-9.15,14.36h-29.51
					c-0.7-1.87-1.59-6.53,5.93-8.18c9.52-2.09,13.1-13.62,12.51-24.32c-0.25-4.49-0.13-9.6,0.09-14.03c0.3-6.13,0.8-10.94,0.8-10.94
					l20.22-4.76l2.12,2.73l2.04,2.62C2281.87,1507.71,2294.06,1519.01,2291.68,1527.04z"/>
				<path class="st7" d="M2130.51,1564.59h-69.42c0.81-2.51,3.26-6.46,10.58-7.64c10.66-1.72,29.13-7.93,33.25-21.55
					c0.13-0.44,0.25-0.88,0.35-1.34c3.27-14.57,27.05,4.46,27.05,4.46s0.07,0.58,0.17,1.56
					C2133.02,1545.18,2134.33,1561.2,2130.51,1564.59z"/>
				<path class="st8" d="M2074.5,1175.31c0,0,3.61,45.07,7.86,99.25c5.77,73.59,12.71,164,13.4,181.12
					c1.19,29.74,5.95,77.31,5.95,77.31s11.29,11.3,33.89,6.54c0,0,20.14-67.9,25.89-139.75c0.09-1.18,0.18-2.36,0.27-3.55
					c5.35-73.14,13.67-227.15,13.67-227.15L2074.5,1175.31z"/>
				<path class="st7" d="M2074.5,1175.31c0,0,3.61,45.07,7.86,99.25l79.13,125.21c0.09-1.18,0.18-2.36,0.27-3.55
					c5.35-73.14,13.67-227.15,13.67-227.15L2074.5,1175.31z"/>
				<path class="st8" d="M2090.99,1180.66c0,0,65.11,163.23,107.93,239.93c42.81,76.71,56.19,98.12,56.19,98.12
					s24.53-9.81,26.76-16.5c0,0-16.37-148.09-45.04-184.19c-16.2-20.4-35.23-81.61-36.12-103.02c-0.89-21.41-5.8-63.77-5.8-63.77
					L2090.99,1180.66z"/>
			</g>
			<path class="st9" d="M2025.15,1135.6l-3.72,7.42c0,0-18.93,2.65-13.72,22.37c0,0,2.81,8.12,8.03,5.55
				c5.22-2.57,2.65-2.35,10.13-5.81c7.48-3.46,11.81-10.1,10.14-16.19l1.2-6.46L2025.15,1135.6z"/>
			<path class="st10" d="M2124.39,928.7c-2.89-17.09-2.98-27.22-2.98-27.22l33.04-26.63c-1.23,36.61,22.23,54.21,22.23,54.21
				s-44.02,21.67-69.47,13.64C2107.2,942.71,2113.47,934.71,2124.39,928.7z"/>
			<path class="st9" d="M2113.62,900.88c0,0,42.03,6.98,45.97-19.26c3.95-26.24,12.03-43.01-14.64-48.58
				c-26.67-5.57-33.4,3.66-36.84,12.1C2104.66,853.58,2102.79,898.38,2113.62,900.88z"/>
			<path class="st7" d="M2159.32,883.43c0,0-0.85-35.15-39.14-40.79c-26.23-3.86-10.35-25.78-7.35-29.25c0,0,20.05,3.83,40.57,8.33
				C2196.48,831.17,2163.87,878.2,2159.32,883.43z"/>
			<path class="st11" d="M2029.56,1145.91c-5.62-5.76-9.79-13.27-9.79-13.27s47.75-59.33,51.63-65.48
				c3.88-6.15,32.88-104.84,32.88-104.84l73.34-14.86c0,0-61.21,126.29-71.36,141.69c-16.76,25.44-66.89,63.31-66.89,63.31
				S2033.97,1150.44,2029.56,1145.91z"/>
			<path class="st12" d="M2071.69,1179.06c0.77,0.64,1.66,1.02,2.67,1.02c9.56-0.13,37.42,5.18,60.99,2.76
				c19.88-1.91,37.47-7.79,56.36-16.26c2.51-1.13,8.28-4.21,8.15-7.01c-0.08-3.07-0.39-7.52-0.77-13.13
				c-1.34-19.5-3.67-53.04-1.4-91.73c0.41-7.21,0.62-14.35,0.65-21.39c0.19-52.44-10.11-99.29-31-114.9
				c-1.79-1.28-12.84,4.8-22.91,9.77c-9.3,4.59-18.6,5.1-27.39,3.32l-8.79,7.77c-10.7,9.94-22.43,23.45-27.52,43.96
				c-4.34,17.45-6.88,48.93-8.28,81.55c-0.64,14.78-1.15,29.69-1.28,43.83v0.51c-0.12,1.4-0.12,2.93-0.12,4.34
				C2070.54,1149.76,2071.05,1178.55,2071.69,1179.06z"/>
			<path class="st11" d="M2199.09,1146.43c-1.34-19.5-3.67-53.04-1.4-91.73c0.41-7.21,0.62-14.35,0.65-21.39
				c-8.71-21.12-15.82-36.43-15.82-36.43h-21.94C2160.59,996.89,2144.51,1106.75,2199.09,1146.43z"/>
			<g>
				<path class="st13" d="M2369.23,1247.28l-17.03-54.81c-5.12-16.46-22.77-25.74-39.23-20.63l-126.47,39.31
					c-16.46,5.12-25.74,22.77-20.63,39.23l17.03,54.81c5.12,16.46,22.77,25.74,39.23,20.63l126.47-39.31
					C2365.07,1281.39,2374.35,1263.74,2369.23,1247.28z"/>
				<path class="st14" d="M2386.09,1242.7l-17.23-55.45c-5.13-16.52-22.85-25.83-39.37-20.7l-43.47,13.51l-3.67-11.82
					c-1.7-5.47-7.53-8.53-13-6.84l-2.48,0.77l-22.62,7.03l-12.67,3.94c-2.64,0.83-4.81,2.63-6.1,5.09
					c-1.29,2.46-1.56,5.27-0.73,7.91l3.67,11.82l-25.18,7.83c-0.97,0.3-1.91,0.64-2.82,1.03c-0.01,0-0.02,0.01-0.03,0.01
					s-0.01,0.01-0.02,0.01c-0.04,0.02-0.09,0.04-0.13,0.06c-14.62,6.22-22.52,22.77-17.7,38.26l17.23,55.45
					c4.44,14.29,18.31,23.19,32.66,22c0.01,0,0.01,0,0.02,0c2.23-0.18,4.47-0.61,6.69-1.3l0.06-0.02l126.19-39.22
					C2381.91,1276.94,2391.23,1259.22,2386.09,1242.7z M2234.63,1196.03l-3.67-11.82c-0.64-2.04,0.51-4.22,2.55-4.85l12.31-3.83
					l21.04-6.54l4.42-1.37c0.38-0.12,0.77-0.18,1.15-0.18c1.65,0,3.19,1.07,3.7,2.73l3.68,11.82L2234.63,1196.03z"/>
			</g>
			<path class="st9" d="M2241.78,1153.26l4.17,7.18c0,0-8.16,17.28,11.2,23.73c0,0,8.33,2.1,9.04-3.67
				c0.71-5.77-0.52-3.5,0.69-11.65c1.21-8.15-1.97-15.41-7.99-17.35l-4.75-4.54L2241.78,1153.26z"/>
			<path class="st12" d="M2252.82,1155.23c-7.9,1.54-16.46,0.92-16.46,0.92s-23.46-72.46-26.47-79.08
				c-3.02-6.62-69.67-84.96-69.67-84.96l27.77-69.49c0,0,72.09,120.42,79.41,137.34c12.1,27.96,16.29,90.65,16.29,90.65
				S2259.03,1154.02,2252.82,1155.23z"/>
		</g>
	</g>
	<g>
		<g>
			<path class="st15" d="M1083.75,1027.47L1083.75,1027.47c-0.04,0-0.08,0-0.12,0.01
				C1083.67,1027.47,1083.71,1027.47,1083.75,1027.47z"/>
			<g>
				<path d="M645.17,1200.12L645.17,1200.12c22.9-0.85,46.69-1.31,71.4-1.31c0,0,136.77-118.69,294.99-159.09
					C848.89,1079.89,645.17,1200.12,645.17,1200.12z"/>
			</g>
		</g>
		<path class="st16" d="M1883.93,1289.22v-131.05c0,0-153.74-17.57-246.72-51.25c-215.24-79.07-330.92-80.53-526.39-80.53
			c-148.41,0-298.72,99.39-362.5,147.24c-21.5,16.14-47.56,25.04-74.44,25.63c-234.77,5.15-379.9,52.01-451.97,83.65
			c-33.78,14.83-55.51,48.3-55.51,85.18v44.12l0,0c-4.85,0-8.79,3.93-8.79,8.79v73.21c0,4.85,3.93,8.79,8.79,8.79l0,0h100.3h39.8
			c-13.88-24.87-21.53-53.69-20.76-84.36c2.19-87.38,73.56-158.53,160.94-160.47c92.68-2.05,168.46,72.47,168.46,164.68
			c0,29.1-7.58,56.42-20.82,80.15h861.97c-13.88-24.87-21.53-53.69-20.76-84.36c2.19-87.38,73.56-158.53,160.94-160.47
			c92.68-2.05,168.46,72.47,168.46,164.68c0,29.1-7.58,56.42-20.82,80.15h34.42c119.12,0,135.99-121.81,137.11-181.54
			C1915.95,1303.75,1901.65,1289.22,1883.93,1289.22z"/>
		<path d="M1035.35,1050.06c-135.99,34.41-281.81,152.04-281.81,152.04l385.98-8.26c15.14-0.32,28.77-9.24,35.14-22.98l59.15-127.64
			H1090.7C1072.04,1043.23,1053.44,1045.48,1035.35,1050.06z"/>
		<path d="M1256.51,1046.16l-54.19,124.14c-4.17,9.55,2.83,20.23,13.24,20.23c54.68,0.03,198.25-2,280.9-22.71
			c19.85-4.97,26.52-29.96,11.75-44.12C1474.62,1091.48,1401.59,1046.16,1256.51,1046.16z"/>
		<path class="st17" d="M176.43,1326.01h56.4c0,0,92.22-86.08,240.21-110.48C473.04,1215.52,199.65,1245.65,176.43,1326.01z"/>
		<path class="st18" d="M1883.93,1289.22H1869c-8.36,0-15.99-4.79-19.57-12.35c-8.63-18.26-27.58-52.94-56.65-77.59
			c-11.26-9.54-4.52-27.93,10.24-27.93h80.91V1289.22z"/>
		<path class="st15" d="M1143.58,1230.29h-75.02c-4.14,0-7.5-3.36-7.5-7.5l0,0c0-4.14,3.36-7.5,7.5-7.5h75.02
			c4.14,0,7.5,3.36,7.5,7.5l0,0C1151.08,1226.93,1147.72,1230.29,1143.58,1230.29z"/>
		<path class="st15" d="M1475.23,1230.29h-75.02c-4.14,0-7.5-3.36-7.5-7.5l0,0c0-4.14,3.36-7.5,7.5-7.5h75.02
			c4.14,0,7.5,3.36,7.5,7.5l0,0C1482.73,1226.93,1479.37,1230.29,1475.23,1230.29z"/>
		<path class="st17" d="M1411.72,1278.98H735.35c-27.97,0-45.17,30.6-30.64,54.5l43.56,71.6c9.48,15.58,30.18,19.86,45.03,9.27
			C851.13,1373.11,1017.72,1287.57,1411.72,1278.98z"/>
	</g>
	<path class="st19" d="M1824.16,419.26c-69.4,0-125.66,56.26-125.66,125.66c0,69.4,125.66,194.12,125.66,194.12
		s125.66-124.72,125.66-194.12C1949.82,475.52,1893.56,419.26,1824.16,419.26z M1824.16,619.31c-47.09,0-85.26-38.17-85.26-85.26
		c0-47.09,38.17-85.26,85.26-85.26s85.26,38.17,85.26,85.26C1909.42,581.14,1871.24,619.31,1824.16,619.31z"/>
	<path class="st20" d="M2575.97,1568.88H2.07c-1.14,0-2.07-0.93-2.07-2.07v-0.16c0-1.14,0.93-2.07,2.07-2.07h2573.9
		c1.14,0,2.07,0.93,2.07,2.07v0.16C2578.04,1567.95,2577.11,1568.88,2575.97,1568.88z"/>
	<path class="st17" d="M1164.87,963.52h-34.69c-4.53,0-8.58,2.85-10.12,7.11l-20.44,56.84h76v-53.2
		C1175.62,968.34,1170.81,963.52,1164.87,963.52z"/>
	<path d="M1175.62,1026.57v-38.88h-14.88c-10.26,0-19.42,6.45-22.87,16.12l-8.12,22.76H1175.62z"/>
	<g>
		<rect x="967.07" y="1298.24" width="51.33" height="51.33"/>
		<rect x="1018.4" y="1349.57" width="51.33" height="51.33"/>
		<rect x="1069.74" y="1298.24" width="51.33" height="51.33"/>
		<rect x="1121.07" y="1349.57" width="51.33" height="51.33"/>
		<rect x="1172.4" y="1298.24" width="51.33" height="51.33"/>
	</g>
	<g>
		<path class="st21" d="M1950.91,1450.25h-33.46c-12.34,0-22.37-10.04-22.37-22.37V1307.8c0-12.34,10.04-22.37,22.37-22.37h33.46
			c12.34,0,22.37,10.04,22.37,22.37v120.08C1973.29,1440.21,1963.25,1450.25,1950.91,1450.25z M1917.45,1291.39
			c-9.05,0-16.41,7.36-16.41,16.41v120.08c0,9.05,7.36,16.41,16.41,16.41h33.46c9.05,0,16.41-7.36,16.41-16.41V1307.8
			c0-9.05-7.36-16.41-16.41-16.41H1917.45z"/>
		<g>
			<path class="st21" d="M1957.76,1543.32h-5.09c-5.79,0-10.48,4.69-10.48,10.48c0,5.79,4.69,10.48,10.48,10.48h5.09
				c5.79,0,10.48-4.69,10.48-10.48C1968.25,1548.02,1963.55,1543.32,1957.76,1543.32z"/>
			
				<ellipse transform="matrix(0.9239 -0.3827 0.3827 0.9239 -445.5897 867.4789)" class="st22" cx="1957.76" cy="1553.81" rx="10.48" ry="10.48"/>
		</g>
		<g>
			<path class="st21" d="M1893.12,1543.32h-5.09c-5.79,0-10.48,4.69-10.48,10.48c0,5.79,4.69,10.48,10.48,10.48h5.09
				c5.79,0,10.48-4.69,10.48-10.48C1903.61,1548.02,1898.91,1543.32,1893.12,1543.32z"/>
			
				<ellipse transform="matrix(0.9239 -0.3827 0.3827 0.9239 -450.5101 842.7422)" class="st22" cx="1893.12" cy="1553.81" rx="10.48" ry="10.48"/>
		</g>
		<path class="st21" d="M1971.09,1547.2h-64.14c-19.53,0-35.36-15.83-35.36-35.36v-123.18c0-19.53,15.83-35.36,35.36-35.36h64.14
			c19.53,0,35.36,15.83,35.36,35.36v123.18C2006.45,1531.37,1990.62,1547.2,1971.09,1547.2z"/>
		<path class="st22" d="M1942.75,1547.2h-64.14c-19.53,0-35.36-15.83-35.36-35.36v-123.18c0-19.53,15.83-35.36,35.36-35.36h64.14
			c19.53,0,35.36,15.83,35.36,35.36v123.18C1978.11,1531.37,1962.28,1547.2,1942.75,1547.2z"/>
		<g>
			<path class="st23" d="M1917.89,1518.87h-64.14c-3.29,0-6.48,0.46-9.5,1.3c3.75,15.51,17.71,27.03,34.37,27.03h64.14
				c3.29,0,6.48-0.46,9.5-1.3C1948.51,1530.39,1934.55,1518.87,1917.89,1518.87z"/>
		</g>
		<path class="st21" d="M1959.16,1355.28h3.19v-1.99h-64.91c-14.72,5.01-25.35,18.97-25.35,35.36v123.18
			c0,16.4,10.63,30.35,25.35,35.36h64.91v-1.99h-3.19c-18.4,0-33.37-14.97-33.37-33.37v-123.18
			C1925.79,1370.25,1940.76,1355.28,1959.16,1355.28z M1942.42,1545.21h-32.98c-18.4,0-33.37-14.97-33.37-33.37v-123.18
			c0-18.4,14.97-33.37,33.37-33.37h32.98c-12.21,6.15-20.61,18.8-20.61,33.37v123.18
			C1921.81,1526.41,1930.21,1539.06,1942.42,1545.21z"/>
	</g>
	<g>
		
			<ellipse transform="matrix(0.7071 -0.7071 0.7071 0.7071 -537.064 1549.2087)" class="st24" cx="1601.53" cy="1422.9" rx="143.27" ry="143.27"/>
		<path class="st25" d="M1601.53,1334.13c-49.03,0-88.77,39.74-88.77,88.77c0,49.03,39.74,88.77,88.77,88.77
			s88.77-39.74,88.77-88.77C1690.3,1373.87,1650.55,1334.13,1601.53,1334.13z M1613.69,1343.86c19.33,2.95,36.37,12.84,48.54,27.02
			l-30.76,19c-5.02-4.55-11.08-7.96-17.77-9.86V1343.86z M1589.37,1343.86v36.17c-6.7,1.9-12.76,5.31-17.77,9.86l-30.76-19
			C1553,1356.69,1570.04,1346.81,1589.37,1343.86z M1527.81,1453.9c-4.01-9.53-6.24-20.01-6.24-31c0-11.14,2.28-21.74,6.4-31.38
			l30.75,18.99c-1.14,3.93-1.76,8.09-1.76,12.39c0,4.15,0.58,8.17,1.64,11.98L1527.81,1453.9z M1589.37,1501.94
			c-19.47-2.97-36.62-12.98-48.81-27.33l30.73-18.98c5.07,4.69,11.24,8.21,18.08,10.15V1501.94z M1581.37,1422.9
			c0-11.13,9.02-20.15,20.15-20.15s20.15,9.02,20.15,20.15c0,11.13-9.02,20.15-20.15,20.15S1581.37,1434.03,1581.37,1422.9z
			 M1613.69,1501.94v-36.17c6.84-1.94,13-5.45,18.08-10.15l30.73,18.98C1650.31,1488.96,1633.16,1498.97,1613.69,1501.94z
			 M1644.45,1434.88c1.06-3.81,1.64-7.83,1.64-11.98c0-4.3-0.62-8.45-1.76-12.39l30.75-18.99c4.11,9.64,6.4,20.24,6.4,31.38
			c0,10.99-2.22,21.47-6.24,31L1644.45,1434.88z"/>
	</g>
	<g>
		
			<ellipse transform="matrix(0.7071 -0.7071 0.7071 0.7071 -874.8912 735.6216)" class="st24" cx="450.53" cy="1423.9" rx="143.27" ry="143.27"/>
		<path class="st25" d="M450.53,1335.13c-49.03,0-88.77,39.74-88.77,88.77c0,49.03,39.74,88.77,88.77,88.77
			c49.03,0,88.77-39.74,88.77-88.77C539.3,1374.87,499.55,1335.13,450.53,1335.13z M462.69,1344.86
			c19.33,2.95,36.37,12.84,48.54,27.02l-30.76,19c-5.02-4.55-11.08-7.96-17.77-9.86V1344.86z M438.37,1344.86v36.17
			c-6.7,1.9-12.76,5.31-17.77,9.86l-30.76-19C402,1357.69,419.04,1347.81,438.37,1344.86z M376.81,1454.9
			c-4.01-9.53-6.24-20.01-6.24-31c0-11.14,2.28-21.74,6.4-31.38l30.75,18.99c-1.14,3.93-1.76,8.09-1.76,12.39
			c0,4.15,0.58,8.17,1.64,11.98L376.81,1454.9z M438.37,1502.94c-19.47-2.97-36.62-12.98-48.81-27.33l30.73-18.98
			c5.07,4.69,11.24,8.21,18.08,10.15V1502.94z M430.37,1423.9c0-11.13,9.02-20.15,20.15-20.15c11.13,0,20.15,9.02,20.15,20.15
			c0,11.13-9.02,20.15-20.15,20.15C439.4,1444.05,430.37,1435.03,430.37,1423.9z M462.69,1502.94v-36.17
			c6.84-1.94,13-5.45,18.08-10.15l30.73,18.98C499.31,1489.96,482.16,1499.97,462.69,1502.94z M493.45,1435.88
			c1.06-3.81,1.64-7.83,1.64-11.98c0-4.3-0.62-8.45-1.76-12.39l30.75-18.99c4.11,9.64,6.4,20.24,6.4,31.38
			c0,10.99-2.22,21.47-6.24,31L493.45,1435.88z"/>
	</g>
</g>
</svg>
