<?xml version="1.0" encoding="utf-8"?>
<!-- Generator: Adobe Illustrator 23.0.2, SVG Export Plug-In . SVG Version: 6.00 Build 0)  -->
<svg version="1.1" id="Layer_1" xmlns="http://www.w3.org/2000/svg" xmlns:xlink="http://www.w3.org/1999/xlink" x="0px" y="0px"
	 viewBox="0 0 481.49 686.78" style="enable-background:new 0 0 481.49 686.78;" xml:space="preserve">
<style type="text/css">
	.st0{fill:#F7C812;stroke:#FFFFFF;stroke-width:37;stroke-miterlimit:10;}
	.st1{fill:#FFFFFF;}
</style>
<path class="st0" d="M240.74,18.5C118.2,18.5,18.5,118.2,18.5,240.74c0,154.03,222.46,417.13,222.46,417.13
	s222.03-270.68,222.03-417.13C462.99,118.2,363.29,18.5,240.74,18.5z M307.8,305.82c-18.49,18.49-42.77,27.73-67.06,27.73
	c-24.28,0-48.57-9.24-67.05-27.73c-36.98-36.97-36.98-97.13,0-134.11c17.9-17.91,41.72-27.78,67.05-27.78s49.14,9.87,67.06,27.78
	C344.77,208.69,344.77,268.85,307.8,305.82z"/>
<g>
	<circle class="st1" cx="239.53" cy="237.74" r="90.5"/>
	<path class="st1" d="M239.53,165.74c39.7,0,72,32.3,72,72s-32.3,72-72,72s-72-32.3-72-72S199.83,165.74,239.53,165.74
		 M239.53,128.74c-60.2,0-109,48.8-109,109s48.8,109,109,109s109-48.8,109-109S299.73,128.74,239.53,128.74L239.53,128.74z"/>
</g>
</svg>
