<?xml version="1.0" encoding="utf-8"?>
<!-- Generator: Adobe Illustrator 23.0.2, SVG Export Plug-In . SVG Version: 6.00 Build 0)  -->
<svg version="1.1" id="Layer_1" xmlns="http://www.w3.org/2000/svg" xmlns:xlink="http://www.w3.org/1999/xlink" x="0px" y="0px"
	 viewBox="0 0 351.85 351.85" style="enable-background:new 0 0 351.85 351.85;" xml:space="preserve">
<style type="text/css">
	.st0{fill:#FFFFFF;}
</style>
<g>
	<g>
		<circle class="st0" cx="175.93" cy="175.93" r="125.93"/>
		<path class="st0" d="M175.93,100c41.87,0,75.93,34.06,75.93,75.93s-34.06,75.93-75.93,75.93S100,217.79,100,175.93
			S134.06,100,175.93,100 M175.93,0C78.77,0,0,78.77,0,175.93s78.77,175.93,175.93,175.93s175.93-78.77,175.93-175.93
			S273.09,0,175.93,0L175.93,0z"/>
	</g>
	<g>
		
			<ellipse transform="matrix(0.7071 -0.7071 0.7071 0.7071 -72.8713 175.9269)" class="st0" cx="175.93" cy="175.93" rx="110.67" ry="110.67"/>
		<path d="M175.93,115.25c33.46,0,60.67,27.22,60.67,60.67s-27.22,60.67-60.67,60.67s-60.67-27.22-60.67-60.67
			S142.47,115.25,175.93,115.25 M175.93,15.25c-88.74,0-160.67,71.94-160.67,160.67S87.19,336.6,175.93,336.6
			S336.6,264.67,336.6,175.93S264.67,15.25,175.93,15.25L175.93,15.25z"/>
	</g>
</g>
</svg>
