<?xml version="1.0" encoding="utf-8"?>
<!-- Generator: Adobe Illustrator 28.2.0, SVG Export Plug-In . SVG Version: 6.00 Build 0)  -->
<svg version="1.1" id="Layer_1" xmlns="http://www.w3.org/2000/svg" xmlns:xlink="http://www.w3.org/1999/xlink" x="0px" y="0px"
	 viewBox="0 0 311.08 57.55" style="enable-background:new 0 0 311.08 57.55;" xml:space="preserve">
<style type="text/css">
	.st0{fill:#949494;}
</style>
<g>
	<path class="st0" d="M311.08,28.72c-3.84,6.5-6.03,13.69-8.81,20.63c-2.65,6.61-5.52,8.86-10.78,7.97
		c-1.44-0.24-3.28-0.41-3.24-2.34c0.04-2.01,1.42-2.45,3.45-2.46c4.93-0.04,5.72-1.43,3.89-6.11c-2.02-5.18-4.13-10.32-6.07-15.53
		c-0.42-1.14-2.67-2.64-0.32-3.6c1.71-0.7,3.95-0.71,4.94,1.88c1.57,4.11,3.34,8.15,5.16,12.54c2.89-2.66,3.18-6.02,4.23-8.99
		c1.29-3.63,2.96-6.52,7.54-5.98C311.08,27.41,311.08,28.06,311.08,28.72z"/>
	<path class="st0" d="M82.17,28.23c0.04,2.83-0.77,6.26-2.89,9.39c-2.76,4.08-5.18,8.39-8.08,12.36
		c-5.06,6.95-14.74,8.99-22.29,4.95c-2.89-1.54-5.06-3.68-3.45-7.11c1.61-3.43,4.36-2.54,7.21-1.3c5.65,2.47,8.86,1.53,12.4-3.48
		c2.18-3.09,4.28-6.25,6.21-9.51c3.51-5.93,2.04-12.67-3.33-15.99c-5.46-3.37-11.64-2.1-15.61,3.68
		c-6.23,9.08-12.09,18.4-18.25,27.53C25.87,61,9.33,60.36,2.28,47.48c-2.92-5.34-3.15-11.12-0.05-16.43
		c3.14-5.38,6.91-10.41,10.44-15.58c1.63-2.39,3.8-3.29,6.38-1.56c2.55,1.72,2.51,4.08,0.93,6.45c-2.64,3.97-5.37,7.88-8.04,11.83
		C8,38.02,8.66,43.49,13.67,46.77c4.81,3.15,9.9,1.49,13.74-4.33c5.8-8.79,11.68-17.54,17.53-26.3c5.27-7.9,14.22-11.23,22.97-8.56
		C76.5,10.21,82.34,18.31,82.17,28.23z"/>
	<path class="st0" d="M247.42,20.26c2.26-0.12,4.91-0.05,7.49,0.7c4.86,1.41,7.61,5.32,7.36,10.33c-0.25,4.91-3.52,8.45-8.62,9.28
		c-1.14,0.19-2.34,0.46-3.46,0.33c-4-0.49-5.97,0.85-5.27,5.09c0.37,2.28-0.69,3.2-3.09,3.2c-2.28,0-2.81-1.03-2.8-3
		c0.05-7.54,0.1-15.08-0.03-22.61c-0.05-2.64,1.03-3.52,3.53-3.33C244.02,20.35,245.52,20.26,247.42,20.26z M245.04,30.71
		c-0.44,3.2-0.4,5.78,4.27,5.32c3.8-0.37,7.02-0.83,6.91-5.57c-0.1-4.54-3.39-4.71-6.87-5.09
		C244.73,24.86,244.59,27.46,245.04,30.71z"/>
	<path class="st0" d="M104.17,37.94c0-1.48,0-2.96,0-4.44c0-6.05-0.01-6,6.2-4.98c0.83,0.14,1.8-0.53,2.7-0.85
		c6.21-2.15,10.28,0.01,12.03,6.3c1.17,4.22,0.36,8.5,0.62,12.74c0.13,2.09-1.18,2.39-2.87,2.42c-1.68,0.03-3.01-0.24-3-2.31
		c0-2.96-0.06-5.92-0.03-8.87c0.04-3.34-0.89-6.12-4.83-6.04c-3.59,0.07-5.26,2.28-5.13,5.88c0.11,2.79-0.07,5.59,0.03,8.38
		c0.07,2.07-0.7,2.94-2.87,3c-2.19,0.06-2.97-0.74-2.87-2.85C104.27,43.53,104.17,40.73,104.17,37.94z"/>
	<path class="st0" d="M285,41.16c0,1.15,0.01,2.29,0,3.44c-0.04,5.39-0.24,5.54-5.06,2.88c-1.69-0.93-2.11,0.8-3.16,1.19
		c-3.6,1.33-6.98,1.06-9.67-1.65c-1.97-1.99-2.34-4.63-0.8-7.18c1.9-3.14,5.08-3.13,8.3-3.29c1.55-0.08,4.28,1.23,4.43-1.45
		c0.16-2.82-2.28-3.67-4.89-3.6c-0.83,0.02-1.71-0.01-2.47,0.25c-1.95,0.68-4.19,1.56-4.78-1.23c-0.62-2.88,2.35-2.57,3.96-3.03
		C280.67,24.73,285,28.98,285,41.16z M275.56,39.61c-2.27,0.07-4.57,0.43-4.5,3.26c0.06,2.25,2.07,2.74,3.99,2.62
		c2.42-0.15,4.1-1.46,4.17-3.92C279.31,38.88,276.97,39.98,275.56,39.61z"/>
	<path class="st0" d="M194.12,37.7c0-2.62,0.09-5.25-0.02-7.87c-0.12-2.69,1.97-3.56,3.44-2.54c2.49,1.73,4.28,0.67,6.52-0.03
		c5.32-1.65,10.33,1.49,10.85,6.97c0.39,4.07,0.09,8.2,0.16,12.29c0.03,1.81-0.59,2.65-2.58,2.65c-2.14,0-2.43-1.14-2.41-2.81
		c0.03-2.95,0.24-5.93-0.1-8.85c-0.36-3.06-1.53-5.96-5.5-5.6c-3.47,0.32-4.67,2.58-4.52,5.87c0.13,2.78-0.03,5.58,0.04,8.36
		c0.05,1.9-0.28,3.07-2.68,3.05c-2.32-0.03-3.34-0.75-3.23-3.13C194.22,43.28,194.12,40.49,194.12,37.7z"/>
	<path class="st0" d="M187.98,41.35c0,1.15,0.01,2.3,0,3.45c-0.05,5.1-0.29,5.32-5.02,2.99c-1.27-0.63-1.74-0.02-2.54,0.43
		c-2.12,1.2-4.41,1.5-6.75,0.95c-3.31-0.78-5.22-2.99-5.24-6.3c-0.02-3.4,2.07-5.45,5.4-6.05c1.62-0.29,3.32-0.1,4.97-0.24
		c1.22-0.1,3.04,0.56,3.29-1.26c0.25-1.83-1.11-3.09-2.82-3.57c-1.94-0.54-4-0.54-5.85,0.37c-2.17,1.07-3.23-0.23-3.81-1.82
		c-0.71-1.95,1.36-1.94,2.36-2.36C182.12,23.79,187.98,28.72,187.98,41.35z M178.62,39.62c-2.04,0.15-4.45-0.1-4.6,3
		c-0.11,2.15,1.36,2.86,3.19,2.88c2.59,0.03,4.68-1.06,5.01-3.74C182.55,39.1,180.19,39.89,178.62,39.62z"/>
	<path class="st0" d="M140.04,26.77c1.23,0.14,2.16,0.02,2.86,0.37c1.41,0.7,4.23-0.13,3.75,2.78c-0.53,3.16-2.84,1.72-4.67,1.52
		c-1.3-0.15-2.63-0.25-3.93-0.17c-1.22,0.08-2.35,0.63-2.4,2.04c-0.05,1.31,0.77,2.09,2.08,2.36c1.95,0.4,3.92,0.78,5.85,1.25
		c2.57,0.63,3.98,2.48,4.27,4.9c0.31,2.62-0.82,4.95-3.24,6.16c-4.27,2.12-8.71,1.71-13.1,0.2c-1.35-0.46-1.78-1.32-1.31-2.67
		c0.51-1.46,1.32-2.16,3-1.57c2.34,0.83,4.7,1.71,7.27,0.93c1.17-0.35,2.31-0.81,2.22-2.21c-0.07-1.09-1.08-1.66-2.04-1.92
		c-1.44-0.39-2.94-0.53-4.39-0.85c-3.46-0.75-6.36-1.97-6.19-6.32c0.17-4.17,3.15-5.45,6.43-6.41
		C137.73,26.81,139.11,26.86,140.04,26.77z"/>
	<path class="st0" d="M160.74,49.38c-4.82-0.04-6.98-2.78-7.46-7.02c-0.25-2.26-0.02-4.58-0.11-6.87c-0.06-1.51,0.45-3.07-1.93-3.85
		c-1.94-0.63-1.96-2.96-0.15-3.64c1.9-0.71,2.2-1.67,2.08-3.21c-0.13-1.82,0.5-2.74,2.51-2.68c1.82,0.05,3.44,0.15,3.21,2.55
		c-0.22,2.35,0.83,3.29,3.16,3.11c1.53-0.12,1.97,0.78,1.92,2.16c-0.05,1.14-0.43,2-1.69,1.91c-4.1-0.28-3.6,2.61-3.31,4.94
		c0.39,3.18-2.31,8.15,4.45,8.13c1.17,0,1.78,1.69,1.43,2.74C164.19,49.56,162.24,49.25,160.74,49.38z"/>
	<path class="st0" d="M229.5,49.37c-4.61-0.11-6.95-2.72-7.47-7.46c-0.41-3.72,2.09-8.22-2.74-11.02c-0.55-0.32-0.71-2.57,0.6-2.95
		c2.2-0.64,2.25-2.11,2.22-3.8c-0.04-1.87,1.17-2.07,2.64-2.03c1.37,0.04,2.94,0.02,2.91,1.83c-0.04,2.51,0.47,4.16,3.52,3.82
		c1.18-0.13,1.78,0.56,1.82,1.77c0.05,1.34-0.31,2.23-1.86,2.3c-6.01,0.26-2.82,4.78-3.27,7.39c-0.42,2.39-0.81,5.64,3.51,5.47
		c2.15-0.08,2.66,1.77,2.34,2.96C233.23,49.56,231.14,49.29,229.5,49.37z"/>
	<path class="st0" d="M91.36,35.09c0-3.78,0.12-7.57-0.04-11.34c-0.11-2.51,0.73-3.57,3.38-3.53c2.41,0.03,3.12,0.95,3.08,3.26
		c-0.12,7.56-0.11,15.13-0.01,22.69c0.03,2.25-0.57,3.21-3.06,3.24c-2.67,0.03-3.5-0.94-3.39-3.46
		C91.48,42.33,91.36,38.71,91.36,35.09z"/>
	<path class="st0" d="M25.27,11.26c-2.49-0.13-4.46-1.51-4.15-4.23c0.38-3.33,1.8-6.42,5.79-6.98c2.89-0.41,4.38,1.53,4.89,3.9
		C32.36,6.51,28.11,11.18,25.27,11.26z"/>
</g>
</svg>
